<?xml version="1.0" encoding="utf-8"?>
<!-- Generator: Adobe Illustrator 24.3.0, SVG Export Plug-In . SVG Version: 6.00 Build 0)  -->
<svg version="1.1" xmlns="http://www.w3.org/2000/svg" xmlns:xlink="http://www.w3.org/1999/xlink" x="0px" y="0px"
	 viewBox="0 0 2000 2000" style="enable-background:new 0 0 2000 2000;" xml:space="preserve">
<style type="text/css">
	.st0{fill:url(#SVGID_1_);}
	.st1{fill:url(#SVGID_2_);}
	.st2{fill:url(#SVGID_3_);}
	.st3{fill:url(#SVGID_4_);}
	.st4{fill:url(#SVGID_5_);}
</style>
<g id="katman_1">
	<linearGradient id="SVGID_1_" gradientUnits="userSpaceOnUse" x1="259.6467" y1="1145.5989" x2="1206.1838" y2="1145.5989">
		<stop  offset="0" style="stop-color:#FFE202"/>
		<stop  offset="0.0812" style="stop-color:#FFD701"/>
		<stop  offset="0.15" style="stop-color:#FFCA00"/>
		<stop  offset="0.2779" style="stop-color:#FFB001"/>
		<stop  offset="0.35" style="stop-color:#FFA001"/>
		<stop  offset="0.55" style="stop-color:#FE9200"/>
		<stop  offset="0.75" style="stop-color:#FB7109"/>
		<stop  offset="1" style="stop-color:#EE2D08"/>
	</linearGradient>
	<path class="st0" d="M287.53,851.94c11.38,13.32,28.08,31.33,50.31,50.49c19.37,16.7,38.19,32.93,66.41,47.08
		c17.12,8.59,44.52,19.84,81.25,24.73c297.43,3.11,416.25,2.15,458.27,0c3.31-0.17,11.76-0.63,23.12,0
		c59.07,3.3,102.56,31.11,126.19,46.61c22.9,15.02,46,30.17,67.45,57.98c10.9,14.13,48.56,66.82,45.47,136.42
		c-4.95,111.59-110.6,174.67-136.93,188.97c-59.64,32.4-117.03,34.39-146.02,33.35c-211.84,0.07-423.68,0.13-635.53,0.2
		c-10.58,1.45-23.42,2.63-24.34-0.41c-1.09-3.1,13.79-9.99,25.76-17.47c20.68-12.91,32.19-27.25,49.26-48.51
		c36.32-45.22,53.14-98.66,58.36-116.72c173.56-0.76,347.12-1.52,520.67-2.27c6.04,0.89,15.17,1.52,25.77-0.76
		c14.48-1.75,38.09-11.41,44.72-32.59c5.67-18.15-4.35-34.45-6.06-37.14c-11.81-18.51-31.9-21.58-34.86-21.98
		c-154.61-1.01-309.22-2.02-463.83-3.03c0,0-26.1-3.52-28.04-3.79c-6.14-0.85-47.12-8.85-84.88-30.32
		c-19.23-10.93-81.38-46.25-103.07-119.75c-12.77-43.26-6.23-81.84,0-104.59L287.53,851.94z"/>
	<linearGradient id="SVGID_2_" gradientUnits="userSpaceOnUse" x1="310.1729" y1="959.6551" x2="1741.2188" y2="959.6551">
		<stop  offset="0" style="stop-color:#FFE202"/>
		<stop  offset="0.0812" style="stop-color:#FFD701"/>
		<stop  offset="0.15" style="stop-color:#FFCA00"/>
		<stop  offset="0.2779" style="stop-color:#FFB001"/>
		<stop  offset="0.35" style="stop-color:#FFA001"/>
		<stop  offset="0.55" style="stop-color:#FE9200"/>
		<stop  offset="0.75" style="stop-color:#FB7109"/>
		<stop  offset="1" style="stop-color:#EE2D08"/>
	</linearGradient>
	<path class="st1" d="M1704.7,987.88c-16.28-20.03-42.61-38.33-56.08-43.96c-10.69-4.46-22.36-7.33-22.36-7.33
		c-4.98-1.22-9.27-2.01-12.51-2.53c-28.04,0-56.08,0-84.13,0c0.64-5.35,1.63-19.74-6.82-34.11c-9-15.29-23.1-21.03-30.69-24.13
		c-10.8-4.4-25.82-10.51-38.02-4.29c-4.81,2.45-11.29,7.89-16.29,5.43c-1.46-0.72-2.36-1.89-2.91-2.78
		c-32.97-32.34-65.94-64.67-98.91-97.01v-21.22l-142.02-137.56l-0.47-21.6c0.54-3.14,0.94-8.11-0.76-13.64
		c-3.72-12.09-15.62-20.86-28.04-21.98c-15.2-1.37-25.89,9.19-26.91,10.23c-7.21,7.36-11.33,19.03-15.03,29.49
		c-2.26,6.39-4.4,13.93-7.2,13.83c-1.47-0.05-2.48-2.2-2.78-2.78c-4.08-8-24.94-18.3-46.23-18.19c-25.3,0.13-41.8,14.91-46.99,19.71
		c-2.7,2.49-24.76,23.27-22.48,39.92c0.62,4.54-0.14,9.46-1.67,19.29c-0.18,1.16-0.62,3.63-2.28,4.3c-0.47,0.19-0.91,0.19-1.23,0.15
		c-49.81,6.82-99.62,13.64-149.43,20.46c-4.85-4.13-20.69-16.52-43.71-16.67c-12.71-0.09-22.7,3.59-28.55,6.32
		c0,0-251.68,59.79-269.56,65.94c-1.42,0.49-7.87,2.88-16.88,3.21c-1.78,0.06-3.49,0.04-5.1-0.05c-11.71,0-23.41,0-35.12,0
		c-6,1.16-15.33,3.16-26.53,6.44c-17.64,5.17-52.8,15.82-87.16,43.2c-8.93,7.12-15.61,13.62-19.71,17.81l3.79,7.96
		c13.46,15.33,25.93,26.88,35.24,34.86c43.46,37.26,89.05,57.71,108.38,62.91c4.51,1.21,44.72,11.75,44.72,11.75
		c162.32-0.38,324.63-0.76,486.95-1.14c24.28,1.42,97.02,8.12,159.16,52.29c30.04,21.35,60.15,42.76,73.52,73.52
		c2.52,5.8,6.81,17.37,18.19,27.28c10.83,9.44,18.04,8.62,41.68,18.69c17.38,7.4,29.36,12.51,40.17,22.23
		c10.76,9.68,17.16,21.07,24.51,40.17c13.39,34.83,18.28,65.07,24,107.12c2.8,20.55,6.15,46.55,9.6,76.8
		c39.63-49.63,66.86-94.55,84.88-127.83c37.22-68.72,43.71-103.55,45.73-119.75c2.87-22.99,6.07-48.63-1.01-77.56
		c-1.51-6.16-4.33-15.92-3.03-16.42c1.87-0.72,12.02,17.9,17.68,35.12c3.1,9.43,8.76,30.28,4.8,67.71
		c-5.87,55.4-27.49,96.82-42.69,125.31c-10.91,20.45-21.37,36.4-28.55,46.74h232.93c19.06-29.83,42.36-76.54,48.76-136.93
		C1740.84,1142.55,1750.24,1043.91,1704.7,987.88z M864.45,739.8l141-26.94c2.09,6.14,6.23,15.06,14.64,22.59
		c1.89,1.69,3.78,3.12,5.61,4.34C971.95,739.8,918.2,739.8,864.45,739.8z M1070,708.97c-18.61,0-33.7-15.09-33.7-33.7
		c0-18.61,15.09-33.7,33.7-33.7c18.61,0,33.7,15.09,33.7,33.7C1103.7,693.88,1088.61,708.97,1070,708.97z M1349.25,942.22
		l-128.59-124.61v-24.76l128.59,119.43V942.22z M1380.32,890.87l-214.74-212.21v-27.28l144.51,138.95h12.63l92.97,100.55H1380.32z"
		/>
	<linearGradient id="SVGID_3_" gradientUnits="userSpaceOnUse" x1="1372.4888" y1="1371.684" x2="1506.5676" y2="1371.684">
		<stop  offset="0" style="stop-color:#FFE202"/>
		<stop  offset="0.0541" style="stop-color:#FFD701"/>
		<stop  offset="0.1" style="stop-color:#FFCA00"/>
		<stop  offset="0.1895" style="stop-color:#FFB001"/>
		<stop  offset="0.24" style="stop-color:#FFA001"/>
		<stop  offset="0.42" style="stop-color:#FE9200"/>
		<stop  offset="0.5024" style="stop-color:#FB7309"/>
		<stop  offset="0.6042" style="stop-color:#FB7109"/>
		<stop  offset="0.813" style="stop-color:#F13B08"/>
		<stop  offset="0.8521" style="stop-color:#F23F08"/>
		<stop  offset="0.901" style="stop-color:#EF3208"/>
		<stop  offset="0.9499" style="stop-color:#EE2F08"/>
		<stop  offset="0.9853" style="stop-color:#EE2D08"/>
	</linearGradient>
	<path class="st2" d="M1451.82,1308.98c-3.31,7.78-6.26,14.1-8.34,18.44c-19.08,39.8-40.44,69.44-60.13,96.51
		c-4.77,6.56-8.68,11.76-10.86,14.65h8.34c23.34-7.33,39.97-17.7,50.27-25.26c26.62-19.53,40.38-41.84,54.32-64.42
		c9.55-15.47,23.84-41.77,20.72-43.96c-0.36-0.25-0.87-0.14-1.26,0c-16.67,0-33.35,0-50.02,0L1451.82,1308.98z"/>
	<linearGradient id="SVGID_4_" gradientUnits="userSpaceOnUse" x1="1463.3976" y1="1371.684" x2="1597.4763" y2="1371.684">
		<stop  offset="0" style="stop-color:#FFE202"/>
		<stop  offset="0.0541" style="stop-color:#FFD701"/>
		<stop  offset="0.1" style="stop-color:#FFCA00"/>
		<stop  offset="0.1895" style="stop-color:#FFB001"/>
		<stop  offset="0.24" style="stop-color:#FFA001"/>
		<stop  offset="0.42" style="stop-color:#FE9200"/>
		<stop  offset="0.5024" style="stop-color:#FB7309"/>
		<stop  offset="0.6042" style="stop-color:#FB7109"/>
		<stop  offset="0.813" style="stop-color:#F13B08"/>
		<stop  offset="0.8521" style="stop-color:#F23F08"/>
		<stop  offset="0.901" style="stop-color:#EF3208"/>
		<stop  offset="0.9499" style="stop-color:#EE2F08"/>
		<stop  offset="0.9853" style="stop-color:#EE2D08"/>
	</linearGradient>
	<path class="st3" d="M1542.72,1308.98c-3.31,7.78-6.38,14.04-8.34,18.44c-13.95,31.45-33.94,68.4-60.13,96.51
		c-5.53,5.93-8.68,11.76-10.86,14.65h8.34c23.34-7.33,39.97-17.7,50.27-25.26c26.62-19.53,40.38-41.84,54.32-64.42
		c9.55-15.47,23.84-41.77,20.72-43.96c-0.36-0.25-0.87-0.14-1.26,0c-16.67,0-33.35,0-50.02,0L1542.72,1308.98z"/>
	<linearGradient id="SVGID_5_" gradientUnits="userSpaceOnUse" x1="1553.0554" y1="1371.684" x2="1687.1342" y2="1371.684">
		<stop  offset="0" style="stop-color:#FFE202"/>
		<stop  offset="0.0541" style="stop-color:#FFD701"/>
		<stop  offset="0.1" style="stop-color:#FFCA00"/>
		<stop  offset="0.1895" style="stop-color:#FFB001"/>
		<stop  offset="0.24" style="stop-color:#FFA001"/>
		<stop  offset="0.42" style="stop-color:#FE9200"/>
		<stop  offset="0.5024" style="stop-color:#FB7309"/>
		<stop  offset="0.6042" style="stop-color:#FB7109"/>
		<stop  offset="0.813" style="stop-color:#F13B08"/>
		<stop  offset="0.8521" style="stop-color:#F23F08"/>
		<stop  offset="0.901" style="stop-color:#EF3208"/>
		<stop  offset="0.9499" style="stop-color:#EE2F08"/>
		<stop  offset="0.9853" style="stop-color:#EE2D08"/>
	</linearGradient>
	<path class="st4" d="M1632.38,1308.98c-3.31,7.78-5.86,14.31-8.34,18.44c-3.52,5.88-10,25.84-21.41,44.26
		c-13.73,22.18-32.81,43.43-38.72,52.24c-4.52,6.73-8.68,11.76-10.86,14.65h8.34c23.34-7.33,39.97-17.7,50.27-25.26
		c26.62-19.53,40.38-41.84,54.32-64.42c9.55-15.47,23.84-41.77,20.72-43.96c-0.36-0.25-0.87-0.14-1.26,0c-16.67,0-33.35,0-50.02,0
		L1632.38,1308.98z"/>
</g>
<g id="katman_2">
</g>
</svg>
